<svg xmlns="http://www.w3.org/2000/svg" xmlns:xlink="http://www.w3.org/1999/xlink" width="500" zoomAndPan="magnify" viewBox="0 0 375 374.999991" height="500" preserveAspectRatio="xMidYMid meet" version="1.0"><defs><g/><clipPath id="9d3f00c7fe"><path d="M 24 160 L 44 160 L 44 180 L 24 180 Z M 24 160 " clip-rule="nonzero"/></clipPath><clipPath id="a0814e180a"><path d="M 69.316406 184.8125 L 33.015625 221.113281 L -0.207031 187.886719 L 36.09375 151.585938 Z M 69.316406 184.8125 " clip-rule="nonzero"/></clipPath><clipPath id="6fe8ef3374"><path d="M 69.316406 184.8125 L 33.015625 221.113281 L -0.207031 187.886719 L 36.09375 151.585938 Z M 69.316406 184.8125 " clip-rule="nonzero"/></clipPath><clipPath id="b0e5d97c13"><path d="M 26 184 L 41 184 L 41 215 L 26 215 Z M 26 184 " clip-rule="nonzero"/></clipPath><clipPath id="7144e6b54f"><path d="M 69.316406 184.8125 L 33.015625 221.113281 L -0.207031 187.886719 L 36.09375 151.585938 Z M 69.316406 184.8125 " clip-rule="nonzero"/></clipPath><clipPath id="e071e18ed1"><path d="M 69.316406 184.8125 L 33.015625 221.113281 L -0.207031 187.886719 L 36.09375 151.585938 Z M 69.316406 184.8125 " clip-rule="nonzero"/></clipPath><clipPath id="c6686a6305"><path d="M 22 157 L 47 157 L 47 182 L 22 182 Z M 22 157 " clip-rule="nonzero"/></clipPath><clipPath id="a8b2702776"><path d="M 69.316406 184.8125 L 33.015625 221.113281 L -0.207031 187.886719 L 36.09375 151.585938 Z M 69.316406 184.8125 " clip-rule="nonzero"/></clipPath><clipPath id="c557f0c722"><path d="M 69.316406 184.8125 L 33.015625 221.113281 L -0.207031 187.886719 L 36.09375 151.585938 Z M 69.316406 184.8125 " clip-rule="nonzero"/></clipPath><clipPath id="257b333d7e"><path d="M 24 182 L 43 182 L 43 217 L 24 217 Z M 24 182 " clip-rule="nonzero"/></clipPath><clipPath id="9ee845e7a6"><path d="M 69.316406 184.8125 L 33.015625 221.113281 L -0.207031 187.886719 L 36.09375 151.585938 Z M 69.316406 184.8125 " clip-rule="nonzero"/></clipPath><clipPath id="1d158dd7ee"><path d="M 69.316406 184.8125 L 33.015625 221.113281 L -0.207031 187.886719 L 36.09375 151.585938 Z M 69.316406 184.8125 " clip-rule="nonzero"/></clipPath></defs><g fill="#4a6ec1" fill-opacity="1"><g transform="translate(22.04159, 213.348137)"><g><path d="M 5.65625 -49.421875 C 5.707031 -49.515625 7.585938 -49.5625 11.296875 -49.5625 L 16.875 -49.5625 L 16.71875 -48.046875 C 16.3125 -44.785156 16.070312 -40.390625 16 -34.859375 C 15.925781 -29.335938 15.890625 -25.5625 15.890625 -23.53125 C 15.890625 -18.382812 15.988281 -14.4375 16.1875 -11.6875 C 16.59375 -6.539062 17.050781 -2.75 17.5625 -0.3125 L 17.796875 0.53125 L 15.734375 0.3125 C 14.203125 0.15625 12.0625 0.078125 9.3125 0.078125 C 6.363281 0.078125 4.890625 -0.0234375 4.890625 -0.234375 C 4.890625 -0.429688 5.09375 -1.320312 5.5 -2.90625 C 6.664062 -7.539062 7.273438 -12.566406 7.328125 -17.984375 C 7.378906 -23.410156 7.40625 -26.53125 7.40625 -27.34375 C 7.40625 -36.101562 6.921875 -42.820312 5.953125 -47.5 C 5.753906 -48.570312 5.65625 -49.1875 5.65625 -49.34375 C 5.65625 -49.394531 5.65625 -49.421875 5.65625 -49.421875 Z M 5.65625 -49.421875 "/></g></g></g><g fill="#4a6ec1" fill-opacity="1"><g transform="translate(45.182464, 213.348137)"><g/></g></g><g fill="#4a6ec1" fill-opacity="1"><g transform="translate(68.628812, 213.348137)"><g><path d="M 11.984375 -49.1875 C 13.054688 -49.59375 13.722656 -49.875 13.984375 -50.03125 C 14.234375 -50.03125 14.457031 -49.160156 14.65625 -47.421875 C 15.164062 -43.453125 16.769531 -36.171875 19.46875 -25.578125 C 21 -18.347656 21.84375 -14.707031 22 -14.65625 C 22.457031 -15.269531 23.460938 -19.226562 25.015625 -26.53125 C 26.566406 -33.84375 27.851562 -39.992188 28.875 -44.984375 L 29.40625 -47.578125 L 33.53125 -47.578125 C 36.28125 -47.578125 37.679688 -47.601562 37.734375 -47.65625 C 37.734375 -47.65625 37.757812 -47.65625 37.8125 -47.65625 C 37.957031 -47.65625 38.132812 -47.195312 38.34375 -46.28125 C 41.800781 -31.363281 44.164062 -21.234375 45.4375 -15.890625 L 45.984375 -13.671875 L 46.4375 -14.8125 C 46.738281 -15.582031 47.515625 -19.070312 48.765625 -25.28125 C 50.015625 -31.488281 50.894531 -35.941406 51.40625 -38.640625 C 52.0625 -42.054688 52.519531 -44.753906 52.78125 -46.734375 C 53.082031 -48.929688 53.257812 -50.054688 53.3125 -50.109375 C 53.3125 -50.109375 53.335938 -50.109375 53.390625 -50.109375 C 53.640625 -50.109375 54.171875 -49.976562 54.984375 -49.71875 C 56.566406 -49.15625 58.144531 -48.875 59.71875 -48.875 C 61.25 -48.875 62.78125 -49.128906 64.3125 -49.640625 C 64.507812 -49.691406 64.660156 -49.71875 64.765625 -49.71875 C 64.816406 -49.71875 64.851562 -49.703125 64.875 -49.671875 C 64.90625 -49.648438 64.921875 -49.585938 64.921875 -49.484375 C 64.921875 -49.441406 64.921875 -49.367188 64.921875 -49.265625 C 64.710938 -48.753906 64.175781 -46.765625 63.3125 -43.296875 C 61.175781 -34.492188 58.832031 -25.613281 56.28125 -16.65625 C 54.445312 -10.132812 53.175781 -5.550781 52.46875 -2.90625 C 51.8125 -0.40625 51.46875 0.867188 51.4375 0.921875 C 51.414062 0.972656 51.378906 1 51.328125 1 C 51.222656 1 50.863281 0.84375 50.25 0.53125 C 49.59375 0.226562 47.6875 0 44.53125 -0.15625 L 39.796875 -0.375 L 40.015625 -1.140625 C 40.222656 -1.859375 40.328125 -2.445312 40.328125 -2.90625 C 40.328125 -3.007812 40.328125 -3.082031 40.328125 -3.125 C 39.660156 -6.695312 38.285156 -12.9375 36.203125 -21.84375 C 34.828125 -27.851562 34.035156 -30.859375 33.828125 -30.859375 C 33.773438 -30.859375 33.75 -30.832031 33.75 -30.78125 C 33.707031 -30.519531 32.894531 -26.675781 31.3125 -19.25 C 28.363281 -6.71875 26.785156 -0.351562 26.578125 -0.15625 L 20.921875 -0.15625 L 15.28125 -0.375 L 15.28125 -1.453125 C 15.28125 -2.566406 14.9375 -4.507812 14.25 -7.28125 C 13.5625 -10.0625 12.171875 -15.144531 10.078125 -22.53125 C 7.992188 -29.914062 6.519531 -34.96875 5.65625 -37.6875 C 4.789062 -40.414062 3.945312 -42.769531 3.125 -44.75 L 2.140625 -46.8125 L 3.96875 -47.125 C 6.5625 -47.53125 9.234375 -48.21875 11.984375 -49.1875 Z M 11.984375 -49.1875 "/></g></g></g><g fill="#4a6ec1" fill-opacity="1"><g transform="translate(135.225621, 213.348137)"><g><path d="M 5.65625 -49.421875 C 5.707031 -49.515625 7.585938 -49.5625 11.296875 -49.5625 L 16.875 -49.5625 L 16.71875 -48.046875 C 16.3125 -44.785156 16.070312 -40.390625 16 -34.859375 C 15.925781 -29.335938 15.890625 -25.5625 15.890625 -23.53125 C 15.890625 -18.382812 15.988281 -14.4375 16.1875 -11.6875 C 16.59375 -6.539062 17.050781 -2.75 17.5625 -0.3125 L 17.796875 0.53125 L 15.734375 0.3125 C 14.203125 0.15625 12.0625 0.078125 9.3125 0.078125 C 6.363281 0.078125 4.890625 -0.0234375 4.890625 -0.234375 C 4.890625 -0.429688 5.09375 -1.320312 5.5 -2.90625 C 6.664062 -7.539062 7.273438 -12.566406 7.328125 -17.984375 C 7.378906 -23.410156 7.40625 -26.53125 7.40625 -27.34375 C 7.40625 -36.101562 6.921875 -42.820312 5.953125 -47.5 C 5.753906 -48.570312 5.65625 -49.1875 5.65625 -49.34375 C 5.65625 -49.394531 5.65625 -49.421875 5.65625 -49.421875 Z M 5.65625 -49.421875 "/></g></g></g><g fill="#4a6ec1" fill-opacity="1"><g transform="translate(158.366494, 213.348137)"><g><path d="M 6.34375 -49.265625 C 6.394531 -49.367188 6.519531 -49.421875 6.71875 -49.421875 C 6.976562 -49.421875 7.285156 -49.367188 7.640625 -49.265625 C 8.046875 -49.160156 8.832031 -49.109375 10 -49.109375 C 10.40625 -49.109375 11.207031 -49.117188 12.40625 -49.140625 C 13.601562 -49.171875 14.632812 -49.285156 15.5 -49.484375 L 16.34375 -49.640625 L 16.109375 -46.734375 C 15.960938 -44.859375 15.890625 -38 15.890625 -26.15625 C 15.890625 -14.320312 15.960938 -8.328125 16.109375 -8.171875 C 16.265625 -8.015625 17.488281 -7.9375 19.78125 -7.9375 C 20.644531 -7.9375 22.453125 -7.960938 25.203125 -8.015625 C 27.953125 -8.066406 30.367188 -8.222656 32.453125 -8.484375 C 35.109375 -8.785156 36.738281 -9.015625 37.34375 -9.171875 L 38.34375 -9.3125 L 38.265625 -6.34375 C 38.265625 -5.976562 38.265625 -5.644531 38.265625 -5.34375 C 38.265625 -3.96875 38.34375 -2.59375 38.5 -1.21875 L 38.71875 1 L 38.03125 0.765625 C 36.300781 0.304688 34.378906 -0.0078125 32.265625 -0.1875 C 30.148438 -0.363281 26.828125 -0.453125 22.296875 -0.453125 C 15.984375 -0.453125 11.707031 -0.273438 9.46875 0.078125 C 7.226562 0.429688 5.984375 0.660156 5.734375 0.765625 C 5.628906 0.816406 5.523438 0.84375 5.421875 0.84375 C 5.117188 0.84375 4.96875 0.535156 4.96875 -0.078125 C 4.96875 -0.128906 4.96875 -0.207031 4.96875 -0.3125 C 4.96875 -0.863281 5.09375 -1.570312 5.34375 -2.4375 C 6.414062 -6.507812 7.101562 -11.320312 7.40625 -16.875 C 7.507812 -18.863281 7.5625 -21.207031 7.5625 -23.90625 C 7.5625 -26.601562 7.484375 -30.5625 7.328125 -35.78125 C 7.179688 -41 6.878906 -44.832031 6.421875 -47.28125 C 6.316406 -47.988281 6.265625 -48.492188 6.265625 -48.796875 C 6.265625 -49.054688 6.289062 -49.210938 6.34375 -49.265625 Z M 6.34375 -49.265625 "/></g></g></g><g fill="#4a6ec1" fill-opacity="1"><g transform="translate(199.760386, 213.348137)"><g><path d="M 6.34375 -49.265625 C 6.394531 -49.367188 6.519531 -49.421875 6.71875 -49.421875 C 6.976562 -49.421875 7.285156 -49.367188 7.640625 -49.265625 C 8.046875 -49.160156 8.832031 -49.109375 10 -49.109375 C 10.40625 -49.109375 11.207031 -49.117188 12.40625 -49.140625 C 13.601562 -49.171875 14.632812 -49.285156 15.5 -49.484375 L 16.34375 -49.640625 L 16.109375 -46.734375 C 15.960938 -44.859375 15.890625 -38 15.890625 -26.15625 C 15.890625 -14.320312 15.960938 -8.328125 16.109375 -8.171875 C 16.265625 -8.015625 17.488281 -7.9375 19.78125 -7.9375 C 20.644531 -7.9375 22.453125 -7.960938 25.203125 -8.015625 C 27.953125 -8.066406 30.367188 -8.222656 32.453125 -8.484375 C 35.109375 -8.785156 36.738281 -9.015625 37.34375 -9.171875 L 38.34375 -9.3125 L 38.265625 -6.34375 C 38.265625 -5.976562 38.265625 -5.644531 38.265625 -5.34375 C 38.265625 -3.96875 38.34375 -2.59375 38.5 -1.21875 L 38.71875 1 L 38.03125 0.765625 C 36.300781 0.304688 34.378906 -0.0078125 32.265625 -0.1875 C 30.148438 -0.363281 26.828125 -0.453125 22.296875 -0.453125 C 15.984375 -0.453125 11.707031 -0.273438 9.46875 0.078125 C 7.226562 0.429688 5.984375 0.660156 5.734375 0.765625 C 5.628906 0.816406 5.523438 0.84375 5.421875 0.84375 C 5.117188 0.84375 4.96875 0.535156 4.96875 -0.078125 C 4.96875 -0.128906 4.96875 -0.207031 4.96875 -0.3125 C 4.96875 -0.863281 5.09375 -1.570312 5.34375 -2.4375 C 6.414062 -6.507812 7.101562 -11.320312 7.40625 -16.875 C 7.507812 -18.863281 7.5625 -21.207031 7.5625 -23.90625 C 7.5625 -26.601562 7.484375 -30.5625 7.328125 -35.78125 C 7.179688 -41 6.878906 -44.832031 6.421875 -47.28125 C 6.316406 -47.988281 6.265625 -48.492188 6.265625 -48.796875 C 6.265625 -49.054688 6.289062 -49.210938 6.34375 -49.265625 Z M 6.34375 -49.265625 "/></g></g></g><g fill="#4a6ec1" fill-opacity="1"><g transform="translate(241.154278, 213.348137)"><g/></g></g><g fill="#4a6ec1" fill-opacity="1"><g transform="translate(264.600626, 213.348137)"><g><path d="M 16.265625 -50.328125 C 16.472656 -50.378906 16.691406 -50.429688 16.921875 -50.484375 C 17.148438 -50.535156 17.328125 -50.570312 17.453125 -50.59375 C 17.578125 -50.625 17.664062 -50.640625 17.71875 -50.640625 C 17.875 -50.640625 17.953125 -50.359375 17.953125 -49.796875 C 17.953125 -49.546875 17.972656 -49.367188 18.015625 -49.265625 C 18.066406 -49.160156 18.144531 -49.109375 18.25 -49.109375 C 18.300781 -49.109375 18.378906 -49.132812 18.484375 -49.1875 C 20.160156 -49.800781 21.785156 -50.144531 23.359375 -50.21875 C 24.941406 -50.289062 26.015625 -50.328125 26.578125 -50.328125 C 28.304688 -50.328125 29.707031 -50.175781 30.78125 -49.875 C 37.394531 -48.039062 41.566406 -43.378906 43.296875 -35.890625 C 43.753906 -33.910156 44.007812 -31.722656 44.0625 -29.328125 C 44.113281 -26.929688 44.140625 -25.351562 44.140625 -24.59375 C 44.140625 -21.84375 44.015625 -19.675781 43.765625 -18.09375 C 43.097656 -14.382812 41.925781 -11.15625 40.25 -8.40625 C 38.570312 -5.65625 36.484375 -3.59375 33.984375 -2.21875 C 31.234375 -0.6875 27.617188 0.382812 23.140625 1 C 21.054688 1.300781 19.25 1.453125 17.71875 1.453125 C 17.5625 1.453125 17.035156 1.4375 16.140625 1.40625 C 15.253906 1.382812 13.285156 1.222656 10.234375 0.921875 C 8.910156 0.765625 7.914062 0.625 7.25 0.5 C 6.59375 0.375 6.046875 0.21875 5.609375 0.03125 C 5.179688 -0.144531 4.96875 -0.28125 4.96875 -0.375 C 4.96875 -0.425781 4.976562 -0.488281 5 -0.5625 C 5.03125 -0.644531 5.066406 -0.835938 5.109375 -1.140625 C 5.421875 -1.804688 5.816406 -3.425781 6.296875 -6 C 6.785156 -8.570312 7.15625 -10.925781 7.40625 -13.0625 C 7.664062 -15.550781 7.796875 -18.734375 7.796875 -22.609375 C 7.796875 -24.546875 7.726562 -27.765625 7.59375 -32.265625 C 7.46875 -36.773438 7.078125 -42.035156 6.421875 -48.046875 L 6.265625 -49.875 L 10.6875 -49.875 C 13.695312 -49.976562 15.554688 -50.128906 16.265625 -50.328125 Z M 28.640625 -40.25 C 27.472656 -40.65625 26.300781 -40.882812 25.125 -40.9375 C 23.957031 -40.988281 23.171875 -41.015625 22.765625 -41.015625 C 21.390625 -41.015625 20.21875 -40.910156 19.25 -40.703125 L 17.484375 -40.328125 L 17.265625 -38.421875 C 17.109375 -36.992188 17.015625 -34.15625 16.984375 -29.90625 C 16.960938 -25.65625 16.953125 -23.046875 16.953125 -22.078125 C 16.953125 -16.367188 17.03125 -12.753906 17.1875 -11.234375 L 17.40625 -8.40625 L 18.640625 -8.546875 C 22.203125 -9.003906 25.039062 -9.832031 27.15625 -11.03125 C 29.269531 -12.226562 30.960938 -13.945312 32.234375 -16.1875 C 33.242188 -17.914062 33.925781 -19.875 34.28125 -22.0625 C 34.644531 -24.257812 34.828125 -26.171875 34.828125 -27.796875 C 34.828125 -28.921875 34.773438 -30.015625 34.671875 -31.078125 C 34.367188 -33.679688 33.757812 -35.691406 32.84375 -37.109375 C 31.925781 -38.535156 30.523438 -39.582031 28.640625 -40.25 Z M 28.640625 -40.25 "/></g></g></g><g fill="#4a6ec1" fill-opacity="1"><g transform="translate(312.868041, 213.348137)"><g><path d="M 19.78125 -50.40625 C 20.800781 -50.664062 22.226562 -50.796875 24.0625 -50.796875 C 24.664062 -50.796875 25.859375 -50.753906 27.640625 -50.671875 C 29.429688 -50.597656 30.9375 -50.359375 32.15625 -49.953125 C 34.75 -49.035156 36.882812 -47.757812 38.5625 -46.125 C 41.414062 -43.53125 43.390625 -40.628906 44.484375 -37.421875 C 45.578125 -34.210938 46.125 -30.570312 46.125 -26.5 C 46.125 -25.789062 46.097656 -25.050781 46.046875 -24.28125 C 45.898438 -19.957031 45.210938 -16.085938 43.984375 -12.671875 C 42.109375 -7.484375 39.375 -3.859375 35.78125 -1.796875 C 32.1875 0.265625 28.660156 1.296875 25.203125 1.296875 C 23.722656 1.296875 22.171875 1.144531 20.546875 0.84375 C 17.234375 0.0703125 14.226562 -1.660156 11.53125 -4.359375 C 8.625 -7.253906 6.535156 -11.097656 5.265625 -15.890625 C 4.554688 -18.640625 4.203125 -21.515625 4.203125 -24.515625 C 4.203125 -26.242188 4.429688 -28.8125 4.890625 -32.21875 C 5.347656 -35.632812 6.617188 -39 8.703125 -42.3125 C 10.023438 -44.25 11.65625 -45.941406 13.59375 -47.390625 C 15.53125 -48.835938 17.59375 -49.84375 19.78125 -50.40625 Z M 29.09375 -41.3125 C 27.976562 -41.820312 26.804688 -42.078125 25.578125 -42.078125 C 24.972656 -42.078125 24.03125 -41.9375 22.75 -41.65625 C 21.476562 -41.382812 20.179688 -40.484375 18.859375 -38.953125 C 16.421875 -36.097656 15.046875 -31.921875 14.734375 -26.421875 C 14.679688 -25.765625 14.65625 -25.128906 14.65625 -24.515625 C 14.65625 -20.847656 15.320312 -17.640625 16.65625 -14.890625 C 17.875 -12.242188 19.234375 -10.5625 20.734375 -9.84375 C 22.234375 -9.132812 23.46875 -8.78125 24.4375 -8.78125 C 25.507812 -8.78125 26.601562 -9.0625 27.71875 -9.625 C 29.957031 -10.738281 31.738281 -12.707031 33.0625 -15.53125 C 34.394531 -18.363281 35.160156 -21.789062 35.359375 -25.8125 C 35.359375 -26.320312 35.359375 -26.832031 35.359375 -27.34375 C 35.359375 -34.625 33.269531 -39.28125 29.09375 -41.3125 Z M 29.09375 -41.3125 "/></g></g></g><g clip-path="url(#9d3f00c7fe)"><g clip-path="url(#a0814e180a)"><g clip-path="url(#6fe8ef3374)"><path fill="#ff914d" d="M 26.074219 167.75 C 30.382812 157.785156 42.554688 159.132812 40.867188 162.925781 C 37.953125 169.769531 44.210938 168.335938 43.917969 173.664062 C 43.855469 174.847656 43.53125 175.953125 42.945312 176.980469 C 42.359375 178.007812 41.574219 178.851562 40.589844 179.507812 L 26.558594 179.507812 C 26.558594 179.507812 22.917969 175.042969 26.074219 167.75 Z M 26.074219 167.75 " fill-opacity="1" fill-rule="nonzero"/></g></g></g><g clip-path="url(#b0e5d97c13)"><g clip-path="url(#7144e6b54f)"><g clip-path="url(#e071e18ed1)"><path fill="#4a6ec1" d="M 33.382812 214.191406 C 33.996094 214.191406 34.585938 214.078125 35.15625 213.851562 C 35.726562 213.628906 36.234375 213.304688 36.683594 212.890625 C 37.132812 212.472656 37.492188 211.988281 37.757812 211.4375 C 38.023438 210.886719 38.179688 210.304688 38.226562 209.691406 L 40.519531 184.75 L 26.488281 184.75 L 28.558594 209.710938 C 28.605469 210.316406 28.765625 210.894531 29.03125 211.445312 C 29.296875 211.992188 29.652344 212.476562 30.097656 212.890625 C 30.546875 213.304688 31.050781 213.625 31.621094 213.847656 C 32.1875 214.074219 32.773438 214.1875 33.382812 214.191406 Z M 33.382812 214.191406 " fill-opacity="1" fill-rule="nonzero"/></g></g></g><g clip-path="url(#c6686a6305)"><g clip-path="url(#a8b2702776)"><g clip-path="url(#c557f0c722)"><path fill="#4a6ec1" d="M 27.144531 161.890625 C 27.980469 160.988281 28.929688 160.21875 29.988281 159.582031 C 31.042969 158.949219 32.167969 158.472656 33.359375 158.15625 C 34.550781 157.84375 35.761719 157.699219 36.996094 157.726562 C 38.226562 157.753906 39.429688 157.953125 40.605469 158.320312 C 40.878906 158.410156 41.140625 158.527344 41.386719 158.667969 C 41.636719 158.808594 41.867188 158.976562 42.082031 159.167969 C 42.292969 159.355469 42.488281 159.566406 42.65625 159.796875 C 42.828125 160.023438 42.972656 160.269531 43.09375 160.527344 C 43.214844 160.789062 43.308594 161.058594 43.375 161.335938 C 43.4375 161.613281 43.472656 161.898438 43.480469 162.183594 C 43.488281 162.46875 43.464844 162.753906 43.414062 163.035156 C 43.363281 163.316406 43.285156 163.589844 43.175781 163.855469 C 42.105469 166.234375 42.398438 166.527344 43.589844 167.542969 C 44.511719 168.308594 45.203125 169.238281 45.664062 170.34375 C 46.128906 171.445312 46.308594 172.59375 46.210938 173.785156 C 46.179688 174.570312 46.054688 175.34375 45.839844 176.101562 C 45.625 176.859375 45.324219 177.582031 44.9375 178.269531 C 44.550781 178.953125 44.089844 179.585938 43.550781 180.164062 C 43.015625 180.738281 42.417969 181.246094 41.761719 181.679688 C 41.367188 181.859375 40.953125 181.929688 40.519531 181.886719 L 26.453125 181.886719 C 25.667969 181.890625 25.03125 181.585938 24.539062 180.972656 C 24.332031 180.765625 20.128906 175.320312 23.832031 166.785156 C 24.621094 164.941406 25.726562 163.308594 27.144531 161.890625 Z M 38.332031 162.734375 C 37.214844 162.5 36.113281 162.546875 35.019531 162.871094 C 34.257812 163.058594 33.523438 163.332031 32.828125 163.695312 C 32.128906 164.058594 31.484375 164.5 30.890625 165.019531 C 30.300781 165.539062 29.78125 166.121094 29.328125 166.765625 C 28.878906 167.414062 28.511719 168.101562 28.230469 168.835938 C 27.574219 170.121094 27.207031 171.484375 27.128906 172.925781 C 27.050781 174.367188 27.269531 175.761719 27.78125 177.113281 L 39.710938 177.007812 C 40.21875 176.554688 40.621094 176.019531 40.914062 175.402344 C 41.207031 174.789062 41.371094 174.136719 41.398438 173.457031 C 41.453125 172.40625 41.160156 172.042969 40.226562 171.179688 C 39.914062 170.941406 39.625 170.675781 39.359375 170.386719 C 39.09375 170.09375 38.851562 169.785156 38.640625 169.449219 C 38.429688 169.117188 38.25 168.769531 38.097656 168.40625 C 37.949219 168.039062 37.828125 167.667969 37.746094 167.28125 C 37.660156 166.894531 37.609375 166.507812 37.59375 166.113281 C 37.578125 165.71875 37.597656 165.328125 37.648438 164.933594 C 37.703125 164.542969 37.789062 164.160156 37.910156 163.785156 C 38.03125 163.410156 38.183594 163.046875 38.367188 162.699219 Z M 38.332031 162.734375 " fill-opacity="1" fill-rule="nonzero"/></g></g></g><g clip-path="url(#257b333d7e)"><g clip-path="url(#9ee845e7a6)"><g clip-path="url(#1d158dd7ee)"><path fill="#4a6ec1" d="M 24.730469 183.023438 C 25.203125 182.542969 25.777344 182.304688 26.453125 182.300781 L 40.519531 182.300781 C 40.863281 182.300781 41.195312 182.367188 41.507812 182.507812 C 41.824219 182.648438 42.097656 182.84375 42.328125 183.097656 C 42.558594 183.351562 42.730469 183.644531 42.839844 183.96875 C 42.945312 184.296875 42.984375 184.628906 42.953125 184.972656 L 40.675781 209.898438 C 40.640625 210.351562 40.5625 210.800781 40.441406 211.238281 C 40.320312 211.675781 40.160156 212.101562 39.960938 212.507812 C 39.761719 212.917969 39.527344 213.304688 39.257812 213.671875 C 38.988281 214.035156 38.683594 214.371094 38.351562 214.679688 C 38.015625 214.988281 37.65625 215.265625 37.269531 215.507812 C 36.886719 215.746094 36.480469 215.953125 36.058594 216.117188 C 35.636719 216.285156 35.199219 216.410156 34.753906 216.496094 C 34.304688 216.578125 33.855469 216.621094 33.402344 216.625 C 32.945312 216.621094 32.492188 216.578125 32.046875 216.492188 C 31.597656 216.40625 31.160156 216.28125 30.738281 216.113281 C 30.3125 215.945312 29.90625 215.742188 29.519531 215.5 C 29.136719 215.253906 28.773438 214.976562 28.441406 214.667969 C 28.105469 214.359375 27.804688 214.019531 27.535156 213.652344 C 27.261719 213.285156 27.027344 212.894531 26.832031 212.484375 C 26.632812 212.074219 26.472656 211.648438 26.355469 211.207031 C 26.238281 210.769531 26.160156 210.320312 26.125 209.867188 L 24.058594 184.9375 C 24 184.230469 24.214844 183.617188 24.695312 183.09375 Z M 37.8125 187.179688 L 29.089844 187.179688 L 30.9375 209.46875 C 30.988281 209.75 31.089844 210.007812 31.234375 210.253906 C 31.382812 210.496094 31.566406 210.710938 31.785156 210.890625 C 32.003906 211.070312 32.25 211.207031 32.519531 211.300781 C 32.785156 211.398438 33.0625 211.441406 33.347656 211.441406 C 33.628906 211.4375 33.90625 211.386719 34.171875 211.289062 C 34.441406 211.191406 34.683594 211.050781 34.898438 210.867188 C 35.117188 210.683594 35.296875 210.46875 35.4375 210.222656 C 35.582031 209.976562 35.679688 209.714844 35.726562 209.433594 Z M 37.8125 187.179688 " fill-opacity="1" fill-rule="nonzero"/></g></g></g></svg>